# xmcd
#
# Track frame offsets: 
#        150
#        35165
#        55125
#        69498
#        75553
#        92304
#        93481
#        113661
#        117430
#        128208
#        132303
#        144500
#        164442
#        176268
#        197449
#        218390
#        240316
#        254889
#        284194
#
# Disc length: 3954 seconds
#
# Revision: 2
# Processed by: cddbd v1.5.2PL0 Copyright (c) Steve Scherf et al.
# Submitted via: ExactAudioCopyFreeDBPlugin 1.0
#
DISCID=0f0f7013
DTITLE=Roland Neuwirth and Extremschrammeln - Nachtschicht
DYEAR=2002
DGENRE=Wienerlied
TTITLE0=Nachtschicht
TTITLE1=Mei´ Fixstern
TTITLE2=Net spott´n
TTITLE3=Ausser Betrieb
TTITLE4=Stiag´nsteig´n
TTITLE5=Conference -1
TTITLE6=I wüü an neuch´n Körper
TTITLE7=Conference -2
TTITLE8=Junk
TTITLE9=Conference -3
TTITLE10=satt
TTITLE11=Des tuat ma weh
TTITLE12=Die alte Welt
TTITLE13=Wer is da jetzt besser dran
TTITLE14=nach´n Klang
TTITLE15=Jetzt oder nie
TTITLE16=Fahrt auf´s Land
TTITLE17=Österreich
TTITLE18=Narr´nkastl
EXTD=
EXTT0=
EXTT1=
EXTT2=
EXTT3=
EXTT4=
EXTT5=
EXTT6=
EXTT7=
EXTT8=
EXTT9=
EXTT10=
EXTT11=
EXTT12=
EXTT13=
EXTT14=
EXTT15=
EXTT16=
EXTT17=
EXTT18=
PLAYORDER=
